<svg xmlns="http://www.w3.org/2000/svg" viewBox="0 0 405.81 123.46"><defs><style>.cls-1{fill:#fff;}</style></defs><g id="Layer_2" data-name="Layer 2"><g id="Layer_1-2" data-name="Layer 1"><g id="Page-1"><g id="_007---Car-Insurance" data-name="007---Car-Insurance"><rect id="Rectangle-path" class="cls-1" x="11.04" y="103.58" width="4.42" height="4.42"/><path id="Shape" class="cls-1" d="M8.83,112.42H6.62v8.83a2.21,2.21,0,0,0,2.21,2.21H22.08a2.21,2.21,0,0,0,2.21-2.21v-8.83Z"/><path id="Shape-2" data-name="Shape" class="cls-1" d="M86.12,112.42v8.83a2.2,2.2,0,0,0,2.2,2.21h13.25a2.21,2.21,0,0,0,2.21-2.21v-8.83Z"/><path id="Shape-3" data-name="Shape" class="cls-1" d="M71.3,61.15a22.5,22.5,0,0,1-9.47-18.27V41.76H46.37A4.42,4.42,0,0,1,42,37.34V32.92a4.42,4.42,0,0,1,4.42-4.41H53V24.09H28.42a6.61,6.61,0,0,0-6.24,4.42L9.74,63.84H75.08Zm-36-28.23H31.55a2.22,2.22,0,0,0-2.08,1.48L21.18,58a2.21,2.21,0,0,1-2.08,1.47A2.21,2.21,0,0,1,17,56.48L25.3,32.92a6.64,6.64,0,0,1,6.25-4.41h3.78a2.21,2.21,0,1,1,0,4.41Z"/><rect id="Rectangle-path-2" data-name="Rectangle-path" class="cls-1" x="57.41" y="24.09" width="4.42" height="4.42"/><path id="Shape-4" data-name="Shape" class="cls-1" d="M11,85.92H24.29a2.21,2.21,0,0,0,2.21-2.21,6.62,6.62,0,0,0-6.63-6.62H11a2.21,2.21,0,0,0-2.21,2.2v4.42A2.21,2.21,0,0,0,11,85.92Z"/><rect id="Rectangle-path-3" data-name="Rectangle-path" class="cls-1" x="46.37" y="32.92" width="15.46" height="4.42"/><rect id="Rectangle-path-4" data-name="Rectangle-path" class="cls-1" x="94.95" y="103.58" width="4.42" height="4.42"/><path id="Shape-5" data-name="Shape" class="cls-1" d="M79,50.36,95,61.72l16-11.35a9.23,9.23,0,0,0,3.91-7.49V18.21L95,9.62,75.08,18.21V42.88A9.21,9.21,0,0,0,79,50.36Zm1-12.14a2.28,2.28,0,0,1,1.46-.86,2.2,2.2,0,0,1,1.63.42l7.12,5.34,16.34-20.41a2.21,2.21,0,0,1,3.45,2.76L92.27,47.55a2.21,2.21,0,0,1-3.06.39l-8.84-6.62a2.3,2.3,0,0,1-.86-1.46A2.24,2.24,0,0,1,79.93,38.22Z"/><path id="Shape-6" data-name="Shape" class="cls-1" d="M90.53,77.09a6.62,6.62,0,0,0-6.62,6.62,2.21,2.21,0,0,0,2.21,2.21H99.36a2.21,2.21,0,0,0,2.21-2.21V79.29a2.21,2.21,0,0,0-2.21-2.2Z"/><path id="Shape-7" data-name="Shape" class="cls-1" d="M73.86,57.55,95,72.56l21.09-15a18.08,18.08,0,0,0,7.61-14.67V12.4L95,0,66.24,12.4V42.87A18.06,18.06,0,0,0,73.86,57.55Zm-3.2-40.79a2.22,2.22,0,0,1,1.32-2L94.06,5.19a2.22,2.22,0,0,1,1.75,0l22.08,9.54a2.21,2.21,0,0,1,1.33,2V42.88A13.65,13.65,0,0,1,113.46,54L96.23,66.23a2.19,2.19,0,0,1-2.56,0L76.42,54a13.62,13.62,0,0,1-5.76-11.07Z"/><path id="Shape-8" data-name="Shape" class="cls-1" d="M6.62,108v-4.42A4.41,4.41,0,0,1,11,99.17h4.42a4.4,4.4,0,0,1,4.41,4.41V108H90.53v-4.42A4.41,4.41,0,0,1,95,99.17h4.41a4.41,4.41,0,0,1,4.42,4.41V108h6.62V74.88a6.52,6.52,0,0,0-3.17-5.64l-5.47,3.9A6.62,6.62,0,0,1,106,79.29v4.42a6.63,6.63,0,0,1-6.63,6.63H86.12a6.63,6.63,0,0,1-6.63-6.63A11,11,0,0,1,88,73l-6.67-4.76H6.62A6.63,6.63,0,0,0,0,74.88V108ZM35.33,90.34a4.42,4.42,0,0,1,4.42-4.42H70.66a4.42,4.42,0,0,1,4.42,4.42v8.83a4.41,4.41,0,0,1-4.42,4.41H39.75a4.41,4.41,0,0,1-4.42-4.41Zm-30.91-11A6.62,6.62,0,0,1,11,72.67h8.83a11,11,0,0,1,11,11,6.62,6.62,0,0,1-6.62,6.63H11a6.62,6.62,0,0,1-6.62-6.63Z"/><rect id="Rectangle-path-5" data-name="Rectangle-path" class="cls-1" x="39.75" y="90.34" width="30.91" height="8.83"/></g></g><path class="cls-1" d="M126.42,74.75v25.59h10.23v7.23H117.89V74.75Z"/><path class="cls-1" d="M144.36,97.73c0,3.4,1.59,5.1,4.79,5.1a4.28,4.28,0,0,0,3.87-2.09h7.62q-2.31,7.65-11.54,7.66a15.29,15.29,0,0,1-5.18-.85,11.57,11.57,0,0,1-4-2.42,10.82,10.82,0,0,1-2.59-3.74,12.48,12.48,0,0,1-.91-4.88,13.77,13.77,0,0,1,.87-5,10.53,10.53,0,0,1,2.48-3.81,11,11,0,0,1,3.9-2.42,14.62,14.62,0,0,1,5.16-.85,14.34,14.34,0,0,1,5.09.85,10.36,10.36,0,0,1,3.83,2.46,10.74,10.74,0,0,1,2.4,3.94,15.64,15.64,0,0,1,.82,5.25v.82Zm9.23-4.57A4.73,4.73,0,0,0,152,90.51a5,5,0,0,0-5.94-.05,4.37,4.37,0,0,0-1.46,2.7Z"/><path class="cls-1" d="M179.62,85.24h7.92v22.33h-7.92v-2.48a8.28,8.28,0,0,1-6.84,3.18,11,11,0,0,1-4.48-.9,10.63,10.63,0,0,1-3.57-2.5,11.27,11.27,0,0,1-2.37-3.79,12.84,12.84,0,0,1-.85-4.74,12.41,12.41,0,0,1,.83-4.55,11.82,11.82,0,0,1,2.3-3.77,10.85,10.85,0,0,1,3.53-2.54,10.65,10.65,0,0,1,4.53-.94,9.12,9.12,0,0,1,6.92,2.92Zm-9.93,11.1a5.19,5.19,0,0,0,.39,2,5.41,5.41,0,0,0,1.07,1.64,4.85,4.85,0,0,0,1.61,1.08,5,5,0,0,0,2,.4,5,5,0,0,0,2-.4,4.85,4.85,0,0,0,1.61-1.08,5.94,5.94,0,0,0,1.09-1.61,4.81,4.81,0,0,0,.41-2,4.91,4.91,0,0,0-.41-2,5.66,5.66,0,0,0-1.09-1.64,4.85,4.85,0,0,0-1.61-1.08,5,5,0,0,0-2-.4,5,5,0,0,0-2,.4,4.85,4.85,0,0,0-1.61,1.08,5.7,5.7,0,0,0-1.07,1.59A4.8,4.8,0,0,0,169.69,96.34Z"/><path class="cls-1" d="M204.65,91a9.25,9.25,0,0,0-4.27-1.13,3.21,3.21,0,0,0-1.76.44,1.34,1.34,0,0,0-.68,1.17,1.6,1.6,0,0,0,.11.64,1.17,1.17,0,0,0,.48.45,3.83,3.83,0,0,0,1.09.39l1.89.44a9,9,0,0,1,4.88,2.33A5.94,5.94,0,0,1,208,100a7.78,7.78,0,0,1-.78,3.52,7.63,7.63,0,0,1-2.18,2.64,10.39,10.39,0,0,1-3.35,1.65,15,15,0,0,1-4.31.59,17.55,17.55,0,0,1-8.93-2.57l2.88-5.57a11.18,11.18,0,0,0,6.27,2.26,3.07,3.07,0,0,0,1.78-.48,1.44,1.44,0,0,0,.7-1.22,2.1,2.1,0,0,0-.11-.72,1.22,1.22,0,0,0-.46-.52,3.57,3.57,0,0,0-1-.43c-.45-.13-1-.27-1.76-.42q-3.66-.74-5.12-2.19a5.48,5.48,0,0,1-1.46-4,7.89,7.89,0,0,1,.7-3.38,6.88,6.88,0,0,1,2-2.54A9.15,9.15,0,0,1,196,85a13.89,13.89,0,0,1,4.11-.57,18.6,18.6,0,0,1,7.18,1.44Z"/><path class="cls-1" d="M208.44,76.66a4.33,4.33,0,0,1,.34-1.72,4.58,4.58,0,0,1,1-1.41,4.45,4.45,0,0,1,1.42-1,4.38,4.38,0,0,1,3.43,0,4.45,4.45,0,0,1,1.42,1,4.58,4.58,0,0,1,1,1.41,4.4,4.4,0,0,1,0,3.44,4.45,4.45,0,0,1-2.38,2.37,4.38,4.38,0,0,1-3.43,0,4.45,4.45,0,0,1-2.38-2.37A4.29,4.29,0,0,1,208.44,76.66Zm8.4,8.58v22.33H209V85.24Z"/><path class="cls-1" d="M219.19,85.24h7.88v2.83a8.59,8.59,0,0,1,3.26-2.64,10.23,10.23,0,0,1,3.88-.67,9.61,9.61,0,0,1,4,.76,8,8,0,0,1,2.85,2.16,6.1,6.1,0,0,1,1.31,2.52,13.28,13.28,0,0,1,.35,3.18v14.19h-7.88V96.3a12.08,12.08,0,0,0-.24-2.68,3.26,3.26,0,0,0-.85-1.63,2.94,2.94,0,0,0-1.17-.74,4.28,4.28,0,0,0-1.4-.22,3.9,3.9,0,0,0-3.07,1.2,4.94,4.94,0,0,0-1.06,3.41v11.93h-7.88Z"/><path class="cls-1" d="M270,85.24v20.81a24,24,0,0,1-.21,3.35,14.79,14.79,0,0,1-.61,2.61,8.29,8.29,0,0,1-1.64,2.68,11,11,0,0,1-2.67,2.15,14.34,14.34,0,0,1-3.55,1.44,18,18,0,0,1-9.08-.13,13.18,13.18,0,0,1-3.81-1.81,10.57,10.57,0,0,1-2.68-2.7,9,9,0,0,1-1.39-3.37h8.88q.82,2.22,3.75,2.22a5,5,0,0,0,3.81-1.39,5.41,5.41,0,0,0,1.32-3.88v-2.13a13.48,13.48,0,0,1-1.67,1.37,9.39,9.39,0,0,1-1.64.89,7.26,7.26,0,0,1-1.74.5,11.26,11.26,0,0,1-2,.16,11.46,11.46,0,0,1-4.4-.83,10.15,10.15,0,0,1-5.72-5.86,12.46,12.46,0,0,1-.81-4.59,12.69,12.69,0,0,1,.88-4.77,12.35,12.35,0,0,1,2.37-3.83A11.09,11.09,0,0,1,251,85.56a10.85,10.85,0,0,1,4.5-.93,8.67,8.67,0,0,1,6.66,3V85.24ZM252.36,96.3a5.17,5.17,0,0,0,1.46,3.65,4.64,4.64,0,0,0,1.61,1.09,5.19,5.19,0,0,0,2,.39,5.07,5.07,0,0,0,2-.39A4.64,4.64,0,0,0,261,100a5.42,5.42,0,0,0,1.09-1.63,4.92,4.92,0,0,0,0-4A5.32,5.32,0,0,0,261,92.73a4.91,4.91,0,0,0-1.63-1.09,5,5,0,0,0-1.94-.39,4.66,4.66,0,0,0-2,.41,5.79,5.79,0,0,0-1.61,1.09,5.28,5.28,0,0,0-1.11,1.59A4.78,4.78,0,0,0,252.36,96.3Z"/><path class="cls-1" d="M293.37,107.57h-8.54V74.75h13.59c3.68,0,6.5,1,8.46,2.87s2.94,4.61,2.94,8.1-1,6.18-2.94,8.09-4.78,2.88-8.46,2.88h-5.05Zm0-17.76h2.83q4.69,0,4.7-4.09t-4.7-4.09h-2.83Z"/><path class="cls-1" d="M310.56,85.24h7.88v3.65a9,9,0,0,1,3.09-3.06,8.33,8.33,0,0,1,4.27-1.07h.67a4.65,4.65,0,0,1,.85.09v7.53a7.52,7.52,0,0,0-3.4-.79,5.08,5.08,0,0,0-4.11,1.64A7.23,7.23,0,0,0,318.44,98v9.58h-7.88Z"/><path class="cls-1" d="M327.28,76.66a4.33,4.33,0,0,1,.34-1.72,4.76,4.76,0,0,1,1-1.41,4.45,4.45,0,0,1,1.42-1,4.4,4.4,0,0,1,3.44,0,4.52,4.52,0,0,1,1.41,1,4.41,4.41,0,0,1,1,1.41,4.4,4.4,0,0,1,0,3.44,4.45,4.45,0,0,1-1,1.42,4.67,4.67,0,0,1-1.41,1,4.4,4.4,0,0,1-3.44,0,4.6,4.6,0,0,1-1.42-1,4.81,4.81,0,0,1-1-1.42A4.29,4.29,0,0,1,327.28,76.66Zm8.4,8.58v22.33H327.8V85.24Z"/><path class="cls-1" d="M352.83,91a9.25,9.25,0,0,0-4.27-1.13,3.21,3.21,0,0,0-1.76.44,1.33,1.33,0,0,0-.67,1.17,1.62,1.62,0,0,0,.1.64,1.24,1.24,0,0,0,.48.45,3.83,3.83,0,0,0,1.09.39l1.9.44a9,9,0,0,1,4.87,2.33,5.94,5.94,0,0,1,1.61,4.29,7.78,7.78,0,0,1-.78,3.52,7.52,7.52,0,0,1-2.18,2.64,10.39,10.39,0,0,1-3.35,1.65,15,15,0,0,1-4.31.59,17.58,17.58,0,0,1-8.93-2.57l2.88-5.57a11.18,11.18,0,0,0,6.27,2.26,3.07,3.07,0,0,0,1.78-.48,1.42,1.42,0,0,0,.7-1.22,2.1,2.1,0,0,0-.11-.72,1.22,1.22,0,0,0-.46-.52,3.57,3.57,0,0,0-1-.43c-.45-.13-1-.27-1.76-.42q-3.66-.74-5.12-2.19a5.48,5.48,0,0,1-1.46-4,7.89,7.89,0,0,1,.7-3.38,6.88,6.88,0,0,1,2-2.54A9.15,9.15,0,0,1,344.19,85a13.89,13.89,0,0,1,4.11-.57,18.6,18.6,0,0,1,7.18,1.44Z"/><path class="cls-1" d="M364.23,97.73q0,5.1,4.79,5.1a4.28,4.28,0,0,0,3.88-2.09h7.62q-2.31,7.65-11.54,7.66a15.29,15.29,0,0,1-5.18-.85,11.57,11.57,0,0,1-4-2.42,10.69,10.69,0,0,1-2.59-3.74,12.48,12.48,0,0,1-.91-4.88,13.77,13.77,0,0,1,.87-5,10.53,10.53,0,0,1,2.48-3.81,10.91,10.91,0,0,1,3.9-2.42,14.6,14.6,0,0,1,5.15-.85,14.36,14.36,0,0,1,5.1.85,10.44,10.44,0,0,1,3.83,2.46A10.72,10.72,0,0,1,380,91.66a15.63,15.63,0,0,1,.83,5.25v.82Zm9.23-4.57a4.66,4.66,0,0,0-1.61-2.65,5,5,0,0,0-5.94-.05,4.33,4.33,0,0,0-1.46,2.7Z"/><path class="cls-1" d="M382.26,85.24h7.88v2.83a8.59,8.59,0,0,1,3.26-2.64,10.23,10.23,0,0,1,3.88-.67,9.65,9.65,0,0,1,4,.76,8,8,0,0,1,2.85,2.16,6.1,6.1,0,0,1,1.31,2.52,13.28,13.28,0,0,1,.35,3.18v14.19h-7.88V96.3a12.08,12.08,0,0,0-.24-2.68,3.26,3.26,0,0,0-.85-1.63,2.94,2.94,0,0,0-1.17-.74,4.32,4.32,0,0,0-1.4-.22,3.9,3.9,0,0,0-3.07,1.2,4.94,4.94,0,0,0-1.06,3.41v11.93h-7.88Z"/></g></g></svg>